<?xml version="1.0" encoding="UTF-8" standalone="no"?>
<!-- Created with Inkscape (http://www.inkscape.org/) -->

<svg
   xmlns:dc="http://purl.org/dc/elements/1.1/"
   xmlns:cc="http://creativecommons.org/ns#"
   xmlns:rdf="http://www.w3.org/1999/02/22-rdf-syntax-ns#"
   xmlns:svg="http://www.w3.org/2000/svg"
   xmlns="http://www.w3.org/2000/svg"
   xmlns:xlink="http://www.w3.org/1999/xlink"
   xmlns:sodipodi="http://sodipodi.sourceforge.net/DTD/sodipodi-0.dtd"
   xmlns:inkscape="http://www.inkscape.org/namespaces/inkscape"
   inkscape:version="0.91 r13725"
   version="1.1"
   id="svg2"
   viewBox="0 0 1000 1000"
   height="1000"
   width="1000"
   sodipodi:docname="Pi.svg">
  <sodipodi:namedview
     inkscape:window-maximized="1"
     inkscape:window-y="-8"
     inkscape:window-x="-8"
     inkscape:window-height="801"
     inkscape:window-width="1536"
     units="px"
     showgrid="false"
     inkscape:current-layer="layer2"
     inkscape:document-units="px"
     inkscape:cy="481.61543"
     inkscape:cx="-561.05751"
     inkscape:zoom="0.35355339"
     inkscape:pageshadow="2"
     inkscape:pageopacity="0.0"
     borderopacity="1.0"
     bordercolor="#666666"
     pagecolor="#ffffff"
     id="base" />
  <defs
     id="defs4">
    <linearGradient
       inkscape:collect="always"
       id="linearGradient9334">
      <stop
         style="stop-color:#000000;stop-opacity:1;"
         offset="0"
         id="stop9336" />
      <stop
         style="stop-color:#000000;stop-opacity:0;"
         offset="1"
         id="stop9338" />
    </linearGradient>
    <linearGradient
       inkscape:collect="always"
       xlink:href="#linearGradient9334"
       id="linearGradient9340"
       x1="248.825"
       y1="272.80469"
       x2="892.78442"
       y2="898.80469"
       gradientUnits="userSpaceOnUse" />
  </defs>
  <metadata
     id="metadata7">
    <rdf:RDF>
      <cc:Work
         rdf:about="">
        <dc:format>image/svg+xml</dc:format>
        <dc:type
           rdf:resource="http://purl.org/dc/dcmitype/StillImage" />
        <dc:title />
      </cc:Work>
    </rdf:RDF>
  </metadata>
  <g
     transform="translate(0,-52.362161)"
     id="layer1"
     inkscape:groupmode="layer"
     inkscape:label="Ebene 1">
    <circle
       cy="552.36218"
       cx="500"
       id="path4262"
       style="fill:#00a0e1;fill-opacity:1;stroke:#000000;stroke-width:0;stroke-miterlimit:4;stroke-dasharray:none;stroke-opacity:1"
       r="500" />
  </g>
  <g
     inkscape:label="Symbol"
     id="layer2"
     inkscape:groupmode="layer">
    <path
       style="font-style:normal;font-variant:normal;font-weight:normal;font-stretch:normal;font-size:1000px;line-height:125%;font-family:Calibri;-inkscape-font-specification:Calibri;letter-spacing:0px;word-spacing:0px;fill:url(#linearGradient9340);fill-opacity:1;stroke:#000000;stroke-width:0.1;stroke-linecap:butt;stroke-linejoin:miter;stroke-miterlimit:4;stroke-dasharray:none;stroke-opacity:1;opacity:0.3"
       d="M 261.47656 264.40625 C 258.54687 264.40625 255.94271 265.05729 253.66406 266.35938 C 251.71093 267.66147 250.08333 269.77734 248.78125 272.70703 C 247.47916 275.3112 246.5026 278.89193 245.85156 283.44922 C 245.20052 287.68099 244.875 292.72657 244.875 298.58594 C 244.875 309.97917 246.33984 318.60547 249.26953 324.46484 C 250.00195 325.84831 250.8068 327.06006 251.68164 328.09766 C 251.68699 328.10401 251.69387 328.1089 251.69922 328.11523 C 251.91457 328.36987 252.1315 328.61394 252.35547 328.84766 C 252.35932 328.85168 252.36333 328.85535 252.36719 328.85938 L 252.36914 328.86133 L 252.37109 328.86328 C 252.37529 328.86766 252.38057 328.87062 252.38477 328.875 L 252.38672 328.87695 C 252.38672 328.87695 252.38672 328.87891 252.38672 328.87891 C 252.39254 328.88499 252.39847 328.89042 252.4043 328.89648 C 252.41266 328.90523 252.42131 328.91316 252.42969 328.92188 C 252.43094 328.92318 252.43234 328.92447 252.43359 328.92578 C 252.44197 328.93454 252.45059 328.94245 252.45898 328.95117 C 252.46602 328.95853 252.47343 328.96532 252.48047 328.97266 C 252.51254 329.00628 252.54588 329.03711 252.57812 329.07031 L 252.58008 329.07227 C 252.59583 329.08875 252.61311 329.10276 252.62891 329.11914 C 252.62988 329.12013 252.62989 329.12206 252.63086 329.12305 C 252.64755 329.1405 252.6649 329.15649 252.68164 329.17383 C 252.70121 329.19431 252.72255 329.2121 252.74219 329.23242 C 252.76371 329.25495 252.78504 329.27649 252.80664 329.29883 C 252.82945 329.3227 252.85405 329.34353 252.87695 329.36719 C 252.8956 329.38671 252.91489 329.40446 252.93359 329.42383 C 252.9685 329.46048 253.00394 329.49511 253.03906 329.53125 C 253.06263 329.55587 253.08766 329.57717 253.11133 329.60156 C 253.13964 329.63121 253.16881 329.65819 253.19727 329.6875 C 253.2281 329.7198 253.26001 329.74934 253.29102 329.78125 C 253.32254 329.81427 253.35503 329.84435 253.38672 329.87695 C 253.42076 329.91262 253.45599 329.94528 253.49023 329.98047 C 253.52496 330.01686 253.56077 330.05005 253.5957 330.08594 C 253.63234 330.12435 253.67016 330.15942 253.70703 330.19727 C 253.74487 330.23693 253.78418 330.27343 253.82227 330.3125 C 253.86234 330.35453 253.90496 330.39224 253.94531 330.43359 C 253.98613 330.47641 254.02725 330.51648 254.06836 330.55859 C 254.11197 330.60434 254.15723 330.64645 254.20117 330.69141 C 254.24099 330.73318 254.28217 330.77139 254.32227 330.8125 C 254.37672 330.86977 254.43332 330.92248 254.48828 330.97852 C 254.53178 331.02407 254.57727 331.06461 254.62109 331.10938 C 254.67016 331.16088 254.72005 331.20927 254.76953 331.25977 C 254.82051 331.31328 254.87436 331.36164 254.92578 331.41406 C 254.97937 331.47033 255.0338 331.52306 255.08789 331.57812 C 255.14151 331.63439 255.19784 331.68517 255.25195 331.74023 C 255.3065 331.79748 255.36291 331.85025 255.41797 331.90625 C 255.47504 331.9662 255.53416 332.02149 255.5918 332.08008 C 255.64605 332.13708 255.7011 332.19033 255.75586 332.24609 C 255.82438 332.31827 255.89551 332.38487 255.96484 332.45508 C 256.02245 332.51549 256.08245 332.56988 256.14062 332.62891 C 256.20473 332.69629 256.27112 332.75856 256.33594 332.82422 C 256.40017 332.89173 256.46631 332.95375 256.53125 333.01953 C 256.59788 333.08958 256.66697 333.15446 256.73438 333.22266 C 256.80229 333.29406 256.8727 333.36021 256.94141 333.42969 C 257.01139 333.5033 257.08347 333.57102 257.1543 333.64258 C 257.22557 333.71754 257.29895 333.78654 257.37109 333.85938 C 257.44486 333.93696 257.521 334.00868 257.5957 334.08398 C 257.66894 334.16099 257.7442 334.23188 257.81836 334.30664 C 257.89532 334.38762 257.97475 334.46252 258.05273 334.54102 C 258.12917 334.62141 258.20772 334.69549 258.28516 334.77344 C 258.36595 334.85848 258.44933 334.93722 258.53125 335.01953 C 258.61026 335.10264 258.69139 335.17927 258.77148 335.25977 C 258.85332 335.34593 258.93849 335.42445 259.02148 335.50781 C 259.10505 335.59582 259.19062 335.67859 259.27539 335.76367 C 259.35774 335.85042 259.44382 335.92977 259.52734 336.01367 C 259.62055 336.11203 259.71584 336.20412 259.81055 336.29883 C 259.89586 336.38854 259.98374 336.47194 260.07031 336.55859 C 260.15983 336.65291 260.25285 336.73912 260.34375 336.83008 C 260.43566 336.92695 260.52967 337.018 260.62305 337.11133 C 260.71575 337.20905 260.81206 337.29846 260.90625 337.39258 C 261.00099 337.49246 261.09902 337.58552 261.19531 337.68164 C 261.29138 337.78293 261.39062 337.87719 261.48828 337.97461 C 261.58793 338.07971 261.68965 338.17837 261.79102 338.2793 C 261.88859 338.38211 261.98868 338.47735 262.08789 338.57617 C 262.18868 338.68249 262.29394 338.78076 262.39648 338.88281 C 262.49438 338.9861 262.59576 339.08238 262.69531 339.18164 C 262.80665 339.29943 262.92167 339.40891 263.03516 339.52148 C 263.13317 339.62475 263.23431 339.72108 263.33398 339.82031 C 263.44851 339.94151 263.5668 340.05424 263.68359 340.16992 C 263.7893 340.28132 263.89823 340.38548 264.00586 340.49219 C 264.11623 340.60872 264.23127 340.71671 264.34375 340.82812 C 264.45747 340.94822 264.5735 341.06113 264.68945 341.17578 C 264.80292 341.29549 264.91947 341.40718 265.03516 341.52148 C 265.14788 341.64042 265.26398 341.75163 265.37891 341.86523 C 265.49565 341.98857 265.61723 342.10309 265.73633 342.2207 C 265.85431 342.34538 265.97531 342.46125 266.0957 342.58008 C 266.21571 342.70689 266.33844 342.8265 266.46094 342.94727 C 266.58178 343.07499 266.7067 343.19287 266.83008 343.31445 C 266.95326 343.44468 267.07927 343.56756 267.20508 343.69141 C 267.32911 343.82255 267.45729 343.94369 267.58398 344.06836 C 267.70998 344.20159 267.84001 344.32656 267.96875 344.45312 C 268.09603 344.58772 268.22734 344.71401 268.35742 344.8418 C 268.4869 344.97876 268.61958 345.10641 268.75195 345.23633 C 268.88239 345.37431 269.01505 345.50393 269.14844 345.63477 C 269.28287 345.777 269.42103 345.91029 269.55859 346.04492 C 269.69249 346.18643 269.8298 346.31916 269.9668 346.45312 C 270.09957 346.59346 270.23723 346.7245 270.37305 346.85742 C 270.51227 347.0048 270.65429 347.14397 270.79688 347.2832 C 270.93556 347.42983 271.07869 347.56653 271.2207 347.70508 C 271.35859 347.85089 271.49945 347.98718 271.64062 348.125 C 271.78191 348.27462 271.92752 348.41346 272.07227 348.55469 C 272.21514 348.70602 272.3614 348.84944 272.50781 348.99219 C 272.65259 349.14556 272.80277 349.28905 272.95117 349.43359 C 273.09757 349.58871 273.24637 349.73476 273.39648 349.88086 C 273.54446 350.03767 273.69589 350.18443 273.84766 350.33203 C 273.99963 350.49309 274.15457 350.64553 274.31055 350.79688 C 274.45895 350.95395 274.61145 351.10024 274.76367 351.24805 C 274.91433 351.40776 275.06807 351.55883 275.22266 351.70898 C 275.38031 351.8763 275.54312 352.03261 275.70508 352.18945 C 275.85856 352.35205 276.01626 352.50357 276.17383 352.65625 C 276.33069 352.82263 276.49122 352.9807 276.65234 353.13672 C 276.8111 353.30514 276.97555 353.46329 277.13867 353.62109 C 277.2949 353.78687 277.45477 353.94216 277.61523 354.09766 C 277.78298 354.27606 277.95432 354.44479 278.12695 354.61133 C 278.29143 354.78569 278.45974 354.9503 278.62891 355.11328 C 278.79104 355.2851 278.95636 355.44666 279.12305 355.60742 C 279.29284 355.78768 279.46778 355.95689 279.64258 356.125 C 279.80793 356.30027 279.97639 356.46515 280.14648 356.62891 C 280.31551 356.80838 280.48813 356.9771 280.66211 357.14453 C 280.83334 357.32642 281.00923 357.49844 281.18555 357.66797 C 281.35806 357.85122 281.53521 358.0246 281.71289 358.19531 C 281.89063 358.38418 282.07263 358.56273 282.25586 358.73828 C 282.42854 358.92144 282.60535 359.09307 282.7832 359.26367 C 282.96041 359.45201 283.14156 359.63155 283.32422 359.80664 C 283.50642 360.00031 283.6929 360.18361 283.88086 360.36328 C 284.0579 360.55113 284.23939 360.72965 284.42188 360.9043 C 284.60725 361.10141 284.79694 361.28808 284.98828 361.4707 C 285.16882 361.66233 285.35483 361.84359 285.54102 362.02148 C 285.72628 362.21852 285.91424 362.40533 286.10547 362.58789 C 286.29199 362.78629 286.48322 362.97252 286.67578 363.15625 C 286.86386 363.35636 287.05577 363.54724 287.25 363.73242 C 287.43989 363.93448 287.63588 364.12566 287.83203 364.3125 C 288.02364 364.51643 288.21802 364.71 288.41602 364.89844 C 288.60888 365.10374 288.80653 365.29673 289.00586 365.48633 C 289.20427 365.69757 289.40608 365.89912 289.61133 366.09375 C 289.80407 366.29856 290.00002 366.49249 290.19922 366.68164 C 290.39654 366.89176 290.59864 367.08952 290.80273 367.2832 C 291.00224 367.4957 291.20569 367.69884 291.41211 367.89453 C 291.6126 368.1081 291.81791 368.30926 292.02539 368.50586 C 292.22765 368.72136 292.43516 368.92678 292.64453 369.125 C 292.84799 369.34177 293.05496 369.54875 293.26562 369.74805 C 293.47231 369.96833 293.68433 370.17667 293.89844 370.37891 C 294.10404 370.59789 294.3144 370.80668 294.52734 371.00781 C 294.73193 371.22593 294.94048 371.43237 295.15234 371.63281 C 295.36738 371.86262 295.58745 372.08077 295.81055 372.29102 C 296.02128 372.51562 296.23662 372.72775 296.45508 372.93359 C 296.66856 373.16126 296.88601 373.37948 297.10742 373.58789 C 297.32192 373.81667 297.54116 374.03285 297.76367 374.24219 C 297.97958 374.47251 298.19981 374.69367 298.42383 374.9043 C 298.64163 375.13668 298.86574 375.35798 299.0918 375.57031 C 299.30721 375.80019 299.52651 376.01825 299.75 376.22852 C 299.97553 376.46975 300.20506 376.70022 300.43945 376.91992 C 300.66553 377.16113 300.89589 377.39172 301.13086 377.61133 C 301.35068 377.84545 301.57452 378.06753 301.80273 378.28125 C 302.03288 378.52703 302.26649 378.76295 302.50586 378.98633 C 302.72917 379.22424 302.95552 379.45111 303.1875 379.66797 C 303.41596 379.91198 303.64917 380.1433 303.88672 380.36523 C 304.11314 380.60712 304.34473 380.83839 304.58008 381.05859 C 304.81605 381.31127 305.05705 381.55216 305.30273 381.78125 C 305.53989 382.0346 305.78039 382.27825 306.02734 382.50781 C 306.26249 382.75852 306.50133 382.99921 306.74609 383.22656 C 306.97817 383.47401 307.21559 383.71085 307.45703 383.93555 C 307.69478 384.18971 307.93795 384.43382 308.18555 384.66406 C 308.42468 384.91972 308.66887 385.16502 308.91797 385.39648 C 309.15888 385.65411 309.40523 385.9017 309.65625 386.13477 C 309.89855 386.3939 310.14591 386.64267 310.39844 386.87695 C 310.64728 387.14316 310.90052 387.39868 311.16016 387.63867 C 311.40643 387.90148 311.65528 388.1554 311.91211 388.39258 C 312.15543 388.65228 312.40262 388.90009 312.65625 389.13477 C 312.90502 389.40099 313.15841 389.65451 313.41797 389.89453 C 313.67284 390.16734 313.93106 390.43048 314.19727 390.67578 C 314.44955 390.94519 314.70539 391.20477 314.96875 391.44727 C 315.21752 391.71293 315.47092 391.96949 315.73047 392.20898 C 315.99006 392.48699 316.25404 392.75444 316.52539 393.00391 C 316.77764 393.27338 317.0355 393.53283 317.29883 393.77539 C 317.5613 394.05653 317.82707 394.32812 318.10156 394.58008 C 318.3576 394.85369 318.61731 395.1174 318.88477 395.36328 C 319.14184 395.63865 319.40327 395.90302 319.67188 396.15039 C 319.93822 396.43641 320.20953 396.71088 320.48828 396.9668 C 320.75867 397.25657 321.03326 397.53613 321.31641 397.79492 C 321.58146 398.07808 321.84966 398.35203 322.12695 398.60547 C 322.3932 398.89009 322.66476 399.16529 322.94336 399.41992 C 323.21241 399.7078 323.48396 399.98691 323.76562 400.24414 C 324.03366 400.53097 324.30734 400.80804 324.58789 401.06445 C 324.86091 401.3571 325.1378 401.63933 325.42383 401.90039 C 325.69394 402.18982 325.97107 402.47196 326.25391 402.73047 C 326.52828 403.02499 326.80622 403.30773 327.09375 403.57031 C 327.36996 403.86701 327.64991 404.15169 327.93945 404.41602 C 328.21692 404.71416 328.5001 405.00211 328.79102 405.26758 C 329.06776 405.56506 329.3505 405.85223 329.64062 406.11719 C 329.92307 406.42129 330.21141 406.71222 330.50781 406.98242 C 330.78981 407.28584 331.07714 407.57802 331.37305 407.84766 C 331.65643 408.15276 331.94475 408.44387 332.24219 408.71484 C 332.46194 408.95158 332.68781 409.17637 332.91602 409.39258 C 332.18924 429.25651 331.1722 447.86699 329.83594 465.08984 C 327.23177 502.52473 323.32552 535.40235 318.11719 563.72266 C 313.23438 592.04297 307.53776 616.6198 301.02734 637.45312 C 294.51693 658.28645 289.30859 673.26041 285.40234 682.375 C 281.49609 691.16406 278.24089 698.8138 275.63672 705.32422 C 273.35807 711.83463 272.21875 716.55467 272.21875 719.48438 C 272.21875 721.11198 272.70703 722.73959 273.68359 724.36719 C 274.0498 724.97754 274.53186 725.56628 275.12695 726.13086 C 275.12695 726.13086 275.12891 726.13281 275.12891 726.13281 C 275.13028 726.13411 275.13339 726.13737 275.13477 726.13867 C 275.13948 726.14316 275.14371 726.14786 275.14844 726.15234 C 275.15452 726.15814 275.15991 726.16413 275.16602 726.16992 C 275.1738 726.17735 275.18163 726.18399 275.18945 726.19141 C 275.19856 726.2001 275.20568 726.21007 275.21484 726.21875 C 275.22565 726.22907 275.23521 726.23969 275.24609 726.25 C 275.25891 726.26226 275.27028 726.27487 275.2832 726.28711 C 275.29771 726.301 275.31153 726.31427 275.32617 726.32812 C 275.34236 726.34365 275.35669 726.35952 275.37305 726.375 C 275.3899 726.39116 275.40483 726.4077 275.42188 726.42383 C 275.44233 726.44349 275.45974 726.46475 275.48047 726.48438 C 275.50096 726.50405 275.52025 726.52333 275.54102 726.54297 C 275.56318 726.5643 275.58298 726.58616 275.60547 726.60742 C 275.62929 726.63039 275.64963 726.65484 275.67383 726.67773 C 275.70026 726.70325 275.72506 726.72849 275.75195 726.75391 C 275.77876 726.77978 275.8028 726.80625 275.83008 726.83203 C 275.85921 726.86021 275.88632 726.88796 275.91602 726.91602 C 275.94644 726.94547 275.97286 726.97653 276.00391 727.00586 C 276.03662 727.03756 276.06618 727.07 276.09961 727.10156 C 276.13234 727.13331 276.16186 727.16567 276.19531 727.19727 C 276.23126 727.2322 276.26396 727.26797 276.30078 727.30273 C 276.33778 727.33871 276.37224 727.37437 276.41016 727.41016 C 276.44907 727.44803 276.4835 727.48772 276.52344 727.52539 C 276.5624 727.56334 276.59869 727.60093 276.63867 727.63867 C 276.68081 727.67981 276.71838 727.72277 276.76172 727.76367 C 276.80673 727.80765 276.84815 727.85278 276.89453 727.89648 C 276.93739 727.93834 276.97738 727.97988 277.02148 728.02148 C 277.06911 728.06814 277.11294 728.11577 277.16211 728.16211 C 277.20567 728.20479 277.2442 728.2486 277.28906 728.29102 C 277.34601 728.34708 277.39981 728.40337 277.45898 728.45898 C 277.50724 728.50626 277.55172 728.55461 277.60156 728.60156 C 277.65438 728.65348 277.70308 728.70628 277.75781 728.75781 C 277.81095 728.8101 277.85898 728.86412 277.91406 728.91602 C 277.96719 728.96842 278.01719 729.02025 278.07227 729.07227 C 278.13714 729.13647 278.19784 729.20201 278.26562 729.26562 C 278.32038 729.31952 278.37093 729.37425 278.42773 729.42773 C 278.48939 729.48873 278.54704 729.55086 278.61133 729.61133 C 278.67181 729.67117 278.728 729.73168 278.79102 729.79102 C 278.8552 729.85469 278.91537 729.91932 278.98242 729.98242 C 279.04849 730.048 279.11058 730.11472 279.17969 730.17969 C 279.24618 730.24569 279.30934 730.31157 279.37891 730.37695 C 279.44727 730.44491 279.51041 730.51473 279.58203 730.58203 C 279.65229 730.65197 279.71926 730.72177 279.79297 730.79102 C 279.86417 730.86195 279.9311 730.93368 280.00586 731.00391 C 280.07894 731.07679 280.14778 731.15053 280.22461 731.22266 C 280.29893 731.29686 280.36906 731.37188 280.44727 731.44531 C 280.52346 731.52147 280.5955 731.59849 280.67578 731.67383 C 280.75322 731.75131 280.82654 731.82961 280.9082 731.90625 C 280.98564 731.98382 281.05895 732.06195 281.14062 732.13867 C 281.2229 732.22131 281.30159 732.30504 281.38867 732.38672 C 281.47044 732.46881 281.54825 732.55167 281.63477 732.63281 C 281.71838 732.71686 281.79813 732.80172 281.88672 732.88477 C 281.97033 732.9689 282.05008 733.05358 282.13867 733.13672 C 282.22523 733.22405 282.30847 733.31218 282.40039 733.39844 C 282.4896 733.48851 282.57501 733.57903 282.66992 733.66797 C 282.75597 733.7549 282.83833 733.84187 282.92969 733.92773 C 283.02797 734.02743 283.12326 734.12826 283.22852 734.22656 C 283.31766 734.31651 283.40322 734.40728 283.49805 734.49609 C 283.59017 734.58942 283.6791 734.68329 283.77734 734.77539 C 283.87478 734.87439 283.9699 734.97269 284.07422 735.07031 C 284.17128 735.16889 284.26526 735.26802 284.36914 735.36523 C 284.4677 735.46544 284.56237 735.56722 284.66797 735.66602 C 284.76769 735.76749 284.86571 735.86872 284.97266 735.96875 C 285.07239 736.07038 285.16842 736.17325 285.27539 736.27344 C 285.38043 736.38079 285.48455 736.48801 285.59766 736.59375 C 285.69974 736.69796 285.79851 736.80357 285.9082 736.90625 C 286.01622 737.0169 286.12365 737.12739 286.24023 737.23633 C 286.34691 737.34547 286.45139 737.45503 286.56641 737.5625 C 286.67541 737.67421 286.78266 737.78652 286.90039 737.89648 C 287.01064 738.00959 287.11908 738.12304 287.23828 738.23438 C 287.34635 738.34537 287.45168 738.45713 287.56836 738.56641 C 287.6884 738.69026 287.8087 738.81383 287.93945 738.93555 C 288.05085 739.04984 288.16071 739.16488 288.28125 739.27734 C 288.395 739.39457 288.50752 739.51165 288.63086 739.62695 C 288.75037 739.75053 288.86983 739.87465 289 739.99609 C 289.11516 740.11505 289.22848 740.23458 289.35352 740.35156 C 289.47875 740.48152 289.60518 740.61068 289.74219 740.73828 C 289.86263 740.86281 289.98398 740.987 290.11523 741.10938 C 290.23815 741.23674 290.35992 741.36514 290.49414 741.49023 C 290.61874 741.61953 290.74461 741.74803 290.88086 741.875 C 291.00726 742.00635 291.13307 742.13863 291.27148 742.26758 C 291.39906 742.40027 291.52813 742.53187 291.66797 742.66211 C 291.79641 742.79581 291.92552 742.92933 292.06641 743.06055 C 292.19717 743.1969 292.32896 743.33304 292.47266 743.4668 C 292.60399 743.60382 292.73647 743.74059 292.88086 743.875 C 293.01418 744.01434 293.1481 744.15438 293.29492 744.29102 C 293.42941 744.43169 293.5666 744.57106 293.71484 744.70898 C 293.85076 744.85135 293.98868 744.99326 294.13867 745.13281 C 294.27631 745.27716 294.41625 745.42105 294.56836 745.5625 C 294.70649 745.70744 294.84729 745.85212 295 745.99414 C 295.14041 746.14173 295.28392 746.28903 295.43945 746.43359 C 295.58107 746.58262 295.72579 746.73101 295.88281 746.87695 C 296.02587 747.02767 296.17323 747.17666 296.33203 747.32422 C 296.4762 747.47624 296.62301 747.62852 296.7832 747.77734 C 296.92908 747.93139 297.07987 748.08361 297.24219 748.23438 C 297.3865 748.38689 297.53294 748.54016 297.69336 748.68945 C 297.84435 748.84965 298.00313 749.00742 298.17188 749.16406 C 298.32139 749.32246 298.47568 749.47984 298.64258 749.63477 C 298.7938 749.79515 298.95012 749.9545 299.11914 750.11133 C 299.27147 750.27307 299.42919 750.43368 299.59961 750.5918 C 299.75091 750.75273 299.90696 750.91296 300.07617 751.07031 C 300.23409 751.23888 300.40059 751.40567 300.57812 751.57031 C 300.73461 751.73705 300.89657 751.90351 301.07227 752.06641 C 301.23042 752.23517 301.39639 752.40158 301.57422 752.56641 C 301.7332 752.73619 301.89924 752.90451 302.07812 753.07031 C 302.23933 753.24276 302.40813 753.41368 302.58984 753.58203 C 302.74892 753.75232 302.91467 753.92161 303.09375 754.08789 C 303.25588 754.26215 303.42632 754.43345 303.60938 754.60352 C 303.78078 754.78818 303.96332 754.97042 304.1582 755.15039 C 304.32138 755.32516 304.49349 755.49741 304.67773 755.66797 C 304.84522 755.84815 305.02109 756.02742 305.21094 756.20312 C 305.37953 756.38465 305.55871 756.56324 305.75 756.74023 C 305.92021 756.92377 306.09958 757.10626 306.29297 757.28516 C 306.46418 757.46994 306.64709 757.65195 306.8418 757.83203 C 307.01444 758.01863 307.19794 758.20296 307.39453 758.38477 C 307.5685 758.57302 307.75283 758.75998 307.95117 758.94336 C 308.12677 759.13365 308.31514 759.32055 308.51562 759.50586 C 308.68908 759.69399 308.87254 759.88118 309.07031 760.06445 C 309.25107 760.26137 309.44694 760.45294 309.6543 760.64453 C 309.83354 760.8394 310.02516 761.033 310.23047 761.22266 C 310.41142 761.41967 310.60687 761.613 310.81445 761.80469 C 310.99619 762.00274 311.19175 762.19796 311.40039 762.39062 C 311.58374 762.59068 311.78139 762.78786 311.99219 762.98242 C 312.17658 763.18384 312.37569 763.38227 312.58789 763.57812 C 312.77013 763.77743 312.96632 763.97411 313.17578 764.16797 C 313.36248 764.37312 313.56771 764.57405 313.7832 764.77344 C 313.97411 764.9834 314.18323 765.1906 314.4043 765.39453 C 314.59396 765.60269 314.80021 765.80754 315.01953 766.00977 C 315.20704 766.21581 315.41039 766.41891 315.62695 766.61914 C 315.81857 766.8307 316.02976 767.0387 316.25195 767.24414 C 316.44831 767.46119 316.66599 767.67415 316.89453 767.88477 C 317.08568 768.09556 317.29411 768.3031 317.51562 768.50781 C 317.71456 768.72824 317.93587 768.94441 318.16797 769.1582 C 318.36146 769.37208 318.5741 769.58144 318.79883 769.78906 C 318.99687 770.00909 319.2162 770.22603 319.44727 770.43945 C 319.65007 770.66497 319.87775 770.88493 320.11523 771.10352 C 320.31579 771.32593 320.53717 771.5441 320.77148 771.75977 C 320.97411 771.98488 321.19836 772.20563 321.43555 772.42383 C 321.63546 772.64619 321.85622 772.86446 322.08984 773.08008 C 322.29769 773.31238 322.53081 773.54067 322.77539 773.76562 C 322.98131 773.99515 323.21132 774.21906 323.45312 774.44141 C 323.66028 774.67266 323.89119 774.89908 324.13477 775.12305 C 324.34404 775.35694 324.5777 775.58605 324.82422 775.8125 L 324.82617 775.81445 C 325.03601 776.04898 325.27029 776.27882 325.51758 776.50586 C 325.72788 776.7412 325.96294 776.97142 326.21094 777.19922 C 326.42362 777.43776 326.66268 777.67154 326.91406 777.90234 C 327.12981 778.14447 327.37329 778.38108 327.62891 778.61523 C 327.84477 778.85718 328.08612 779.09415 328.3418 779.32812 C 328.55704 779.56953 328.79786 779.80558 329.05273 780.03906 C 329.27296 780.28677 329.51933 780.52821 329.78125 780.76758 C 329.99951 781.01268 330.24481 781.25135 330.50391 781.48828 C 330.72648 781.73887 330.97697 781.98451 331.24219 782.22656 C 331.46292 782.47468 331.71009 782.71728 331.97266 782.95703 C 332.19926 783.21248 332.4537 783.4624 332.72461 783.70898 C 332.94845 783.96059 333.19994 784.20622 333.4668 784.44922 C 333.69354 784.70466 333.94769 784.95459 334.21875 785.20117 C 334.44654 785.45796 334.70204 785.7092 334.97461 785.95703 C 335.20376 786.21551 335.46182 786.46739 335.73633 786.7168 C 335.96659 786.97662 336.22392 787.23176 336.5 787.48242 C 336.73184 787.74427 336.99312 787.99941 337.27148 788.25195 C 337.50457 788.5153 337.76673 788.77341 338.04688 789.02734 C 338.28116 789.29221 338.54429 789.55129 338.82617 789.80664 C 339.06209 790.07353 339.32709 790.33457 339.61133 790.5918 C 339.84828 790.86002 340.11465 791.12239 340.40039 791.38086 C 340.63728 791.64918 340.90375 791.91137 341.18945 792.16992 C 341.42864 792.44145 341.69914 792.70721 341.98828 792.96875 C 342.23048 793.24388 342.50535 793.51247 342.79883 793.77734 C 343.04117 794.05229 343.31385 794.32124 343.60742 794.58594 C 343.85081 794.86224 344.12481 795.13248 344.41992 795.39844 C 344.66474 795.67656 344.94106 795.94916 345.23828 796.2168 C 345.48431 796.49646 345.76154 796.77 346.06055 797.03906 C 346.30801 797.32053 346.58756 797.59644 346.88867 797.86719 C 347.13708 798.14991 347.41818 798.42537 347.7207 798.69727 C 347.9713 798.98276 348.25478 799.26069 348.56055 799.53516 C 348.81219 799.82194 349.09504 800.10325 349.40234 800.37891 C 349.6545 800.66636 349.93997 800.94639 350.24805 801.22266 C 350.50188 801.51232 350.78901 801.79591 351.09961 802.07422 C 351.35328 802.36388 351.6388 802.64747 351.94922 802.92578 C 352.20561 803.21928 352.49789 803.50525 352.8125 803.78711 C 353.07265 804.08502 353.36737 804.37619 353.6875 804.66211 C 353.9441 804.95528 354.2341 805.24189 354.54883 805.52344 C 354.80992 805.82281 355.10609 806.11508 355.42773 806.40234 C 355.68958 806.70239 355.98787 806.99532 356.31055 807.2832 C 356.57354 807.58457 356.87095 807.87887 357.19531 808.16797 C 357.45965 808.47108 357.75953 808.7679 358.08594 809.05859 C 358.35149 809.36327 358.65222 809.66099 358.98047 809.95312 C 359.24704 810.25918 359.54908 810.55817 359.87891 810.85156 C 360.14738 811.16001 360.45244 811.46026 360.78516 811.75586 C 361.05411 812.06494 361.35796 812.36788 361.69141 812.66406 C 361.96223 812.9756 362.2711 813.27969 362.60742 813.57812 C 362.87899 813.89062 363.18792 814.19483 363.52539 814.49414 C 363.79883 814.80912 364.10884 815.11833 364.44922 815.41992 C 364.72362 815.73608 365.03512 816.04498 365.37695 816.34766 C 365.65101 816.66362 365.9633 816.97094 366.30469 817.27344 C 366.58117 817.59304 366.89686 817.9051 367.24219 818.21094 C 367.52188 818.53445 367.84119 818.85075 368.19141 819.16016 C 368.47078 819.48277 368.78914 819.79689 369.13867 820.10547 C 369.4193 820.42986 369.7383 820.74644 370.08984 821.05664 C 370.37207 821.38311 370.69282 821.70156 371.04688 822.01367 C 371.33006 822.34143 371.65226 822.66132 372.00781 822.97461 C 372.29259 823.30446 372.61655 823.62621 372.97461 823.94141 C 373.26063 824.27288 373.58725 824.59543 373.94727 824.91211 C 374.23408 825.24463 374.5606 825.56909 374.92188 825.88672 C 375.21008 826.22127 375.53879 826.5477 375.90234 826.86719 C 376.1921 827.20374 376.52268 827.5322 376.88867 827.85352 C 377.17957 828.19142 377.51117 828.52122 377.87891 828.84375 C 378.1697 829.18175 378.50147 829.51136 378.86914 829.83398 C 379.16316 830.17651 379.50014 830.50919 379.87305 830.83594 C 380.16642 831.17752 380.50121 831.51005 380.87305 831.83594 C 381.16982 832.18225 381.50934 832.52137 381.88672 832.85156 C 382.18346 833.1974 382.52324 833.53353 382.90039 833.86328 C 383.19915 834.21182 383.54145 834.55256 383.92188 834.88477 C 384.22142 835.23419 384.5637 835.57519 384.94531 835.9082 C 385.2445 836.25743 385.58761 836.59685 385.96875 836.92969 C 386.27027 837.28257 386.61681 837.62673 387.00195 837.96289 C 387.30729 838.32048 387.65764 838.66935 388.04883 839.00977 C 388.35251 839.36459 388.69963 839.71092 389.08789 840.04883 C 389.39391 840.40705 389.74454 840.75667 390.13672 841.09766 C 390.44362 841.45694 390.79588 841.80649 391.18945 842.14844 C 391.49756 842.50951 391.85047 842.86151 392.24609 843.20508 C 392.55409 843.56625 392.90719 843.91806 393.30273 844.26172 C 393.61417 844.62776 393.97371 844.98396 394.375 845.33203 C 394.68675 845.69817 395.04363 846.05614 395.44531 846.4043 C 395.75875 846.7726 396.11902 847.13037 396.52344 847.48047 C 396.83621 847.84808 397.19425 848.20715 397.59766 848.55664 C 397.91296 848.92819 398.27773 849.28953 398.68555 849.64258 C 399.00389 850.01785 399.37049 850.38384 399.7832 850.74023 C 400.09928 851.11221 400.46225 851.47471 400.87109 851.82812 C 401.19153 852.20637 401.56224 852.57452 401.97852 852.93359 C 402.29729 853.30937 402.66277 853.67635 403.07617 854.0332 C 403.39781 854.41335 403.76911 854.78374 404.1875 855.14453 C 404.51094 855.5268 404.88536 855.89902 405.30664 856.26172 C 405.63074 856.64452 406.00355 857.01768 406.42578 857.38086 C 406.7495 857.76347 407.12318 858.13504 407.54492 858.49805 C 407.87088 858.88434 408.24803 859.26063 408.67383 859.62695 C 409.00352 860.01792 409.38446 860.39901 409.81641 860.76953 C 410.14293 861.15584 410.51889 861.53211 410.94531 861.89844 C 411.27681 862.29206 411.66061 862.67593 412.0957 863.04883 C 412.42508 863.43928 412.80496 863.8194 413.23633 864.18945 C 413.56946 864.58554 413.95653 864.97059 414.39453 865.3457 C 414.72798 865.74186 415.1124 866.12873 415.55078 866.50391 C 415.88554 866.90183 416.27423 867.28926 416.71484 867.66602 C 417.05118 868.06596 417.44151 868.45542 417.88477 868.83398 C 418.22216 869.23528 418.61161 869.62609 419.05664 870.00586 C 419.39498 870.40854 419.78573 870.80063 420.23242 871.18164 C 420.57223 871.58634 420.96483 871.98047 421.41406 872.36328 C 421.75427 872.76873 422.14764 873.16339 422.59766 873.54688 C 422.94036 873.95587 423.33662 874.35357 423.79102 874.74023 C 424.13417 875.14972 424.53121 875.54845 424.98633 875.93555 C 425.33095 876.34706 425.72983 876.74782 426.1875 877.13672 C 426.53334 877.54995 426.93471 877.95136 427.39453 878.3418 C 427.74059 878.75544 428.14131 879.15802 428.60156 879.54883 C 428.94916 879.96492 429.3533 880.37068 429.81641 880.76367 C 430.16599 881.18242 430.57251 881.59097 431.03906 881.98633 C 431.38765 882.40382 431.79296 882.80889 432.25781 883.20312 C 432.61067 883.62689 433.0216 884.03964 433.49414 884.43945 C 433.846 884.8613 434.25408 885.27181 434.72461 885.66992 C 435.07917 886.09579 435.49136 886.51042 435.9668 886.91211 C 436.31997 887.33609 436.73013 887.74842 437.20312 888.14844 C 437.55859 888.57646 437.97369 888.99287 438.45117 889.39648 C 438.80968 889.82845 439.22818 890.24914 439.71094 890.65625 C 440.06928 891.08728 440.48663 891.50583 440.96875 891.91211 C 441.32716 892.34366 441.74412 892.76317 442.22656 893.16992 C 442.58686 893.60477 443.00799 894.02782 443.49414 894.4375 C 443.85722 894.876 444.28241 895.30194 444.77344 895.71484 C 445.13494 896.15086 445.55491 896.57562 446.04297 896.98633 C 446.40839 897.42824 446.83671 897.8575 447.33203 898.27344 C 447.69588 898.71287 448.11897 899.14095 448.61133 899.55469 C 448.97856 899.99938 449.40948 900.43122 449.9082 900.84961 C 450.27551 901.29404 450.70445 901.72637 451.20312 902.14453 C 451.57203 902.59133 452.00226 903.02506 452.50391 903.44531 C 452.87461 903.89458 453.30957 904.33147 453.81445 904.75391 C 454.18481 905.20255 454.61691 905.63867 455.12109 906.06055 C 455.49407 906.51321 455.93031 906.95348 456.43945 907.37891 C 456.81319 907.83225 457.24943 908.27319 457.75977 908.69922 C 458.1344 909.15395 458.57194 909.59619 459.08398 910.02344 C 459.4598 910.4799 459.89982 910.92278 460.41406 911.35156 C 460.7915 911.81047 461.23269 912.25656 461.75 912.6875 C 462.12638 913.14513 462.56655 913.58972 463.08203 914.01953 C 463.46165 914.4825 463.90783 914.93266 464.42969 915.36719 C 464.81061 915.8315 465.25724 916.28305 465.78125 916.71875 C 466.16269 917.18345 466.60998 917.63428 467.13477 918.07031 C 467.51624 918.53554 467.96317 918.98732 468.48828 919.42383 C 468.87209 919.89301 469.32372 920.34907 469.85352 920.78906 C 470.23832 921.25938 470.69115 921.71722 471.22266 922.1582 C 471.60839 922.62982 472.06247 923.08718 472.5957 923.5293 C 472.98159 924.00143 473.43508 924.46172 473.96875 924.9043 C 474.3574 925.38068 474.81643 925.84276 475.35547 926.28906 C 475.74491 926.76618 476.20187 927.22883 476.74219 927.67578 C 477.13307 928.15499 477.59367 928.62154 478.13672 929.07031 C 478.52851 929.55054 478.98859 930.01713 479.5332 930.4668 C 479.92534 930.94778 480.38622 931.41491 480.93164 931.86523 C 481.32643 932.35021 481.79124 932.81962 482.3418 933.27344 C 482.73528 933.75657 483.198 934.22552 483.74609 934.67773 C 484.14274 935.16624 484.61144 935.64073 485.16602 936.09766 C 485.56222 936.5852 486.02849 937.0576 486.58203 937.51367 C 486.98173 938.00659 487.4552 938.48454 488.01562 938.94531 C 488.41427 939.43595 488.88341 939.91232 489.44141 940.37109 C 489.84275 940.86616 490.31543 941.34596 490.87891 941.80859 C 491.28095 942.30441 491.75564 942.78476 492.32031 943.24805 C 492.72227 943.74394 493.19515 944.22609 493.75977 944.68945 C 494.16605 945.19162 494.64575 945.67766 495.21875 946.14648 C 495.6214 946.6429 496.09447 947.12603 496.66016 947.58984 C 497.06754 948.09447 497.55132 948.58371 498.12695 949.05469 C 498.53343 949.55727 499.01444 950.04644 499.58789 950.51562 C 499.99512 951.0199 500.47942 951.51175 501.05469 951.98242 C 501.46251 952.48804 501.94674 952.97737 502.52344 953.44922 C 502.93453 953.9602 503.42437 954.45513 504.00781 954.93164 C 504.41893 955.44195 504.9052 955.93814 505.48828 956.41406 C 505.89939 956.92488 506.38733 957.42012 506.9707 957.89648 C 507.38327 958.41034 507.87612 958.9077 508.46289 959.38672 C 508.87742 959.90356 509.37218 960.40511 509.96289 960.88672 C 510.37724 961.40314 510.87068 961.90352 511.46094 962.38477 C 511.87742 962.9048 512.37593 963.40819 512.9707 963.89258 C 513.38712 964.41248 513.8839 964.91613 514.47852 965.40039 C 514.89679 965.92357 515.39746 966.43086 515.99609 966.91797 C 516.41397 967.44076 516.91375 967.94682 517.51172 968.43359 C 517.93122 968.95969 518.43536 969.46934 519.03711 969.95898 C 519.45844 970.48773 519.96688 970.9983 520.57227 971.49023 C 520.99412 972.01947 521.4992 972.53304 522.10547 973.02539 C 522.5273 973.55513 523.03409 974.06775 523.64062 974.56055 C 524.06436 975.09396 524.5766 975.60948 525.1875 976.10547 C 525.61183 976.63977 526.12423 977.15755 526.73633 977.6543 C 527.16108 978.18961 527.67392 978.70745 528.28711 979.20508 C 528.71323 979.74317 529.22928 980.26364 529.8457 980.76367 C 530.27309 981.30373 530.79111 981.8264 531.41016 982.32812 C 531.83731 982.8682 532.35582 983.38888 532.97461 983.89062 C 533.40506 984.43619 533.92882 984.96422 534.55469 985.4707 C 534.98515 986.01539 535.50747 986.54115 536.13281 987.04688 C 536.56327 987.59213 537.08524 988.11878 537.71094 988.625 C 538.14291 989.17346 538.66945 989.70391 539.29883 990.21289 C 539.73154 990.76267 540.25764 991.29262 540.88867 991.80273 C 541.32283 992.35516 541.85397 992.88799 542.48828 993.40039 C 542.92255 993.95312 543.45326 994.48734 544.08789 995 C 544.52376 995.55558 545.05709 996.0923 545.69531 996.60742 C 545.90512 996.87502 546.14051 997.13792 546.39648 997.39648 A 499.99655 499.99655 0 0 0 998.06445 538.58789 C 997.64529 538.11452 997.20691 537.67223 996.73633 537.28516 C 996.24088 536.68823 995.70621 536.15386 995.13477 535.68359 C 994.64046 535.0883 994.10704 534.5552 993.53711 534.08594 C 993.04428 533.49269 992.51524 532.96215 991.94727 532.49414 C 991.45576 531.90285 990.92557 531.37304 990.35938 530.90625 C 989.86879 530.31635 989.34231 529.78819 988.77734 529.32227 C 988.28876 528.73515 987.7635 528.2103 987.20117 527.74609 C 986.71361 527.16044 986.18793 526.63517 985.62695 526.17188 C 985.14099 525.58864 984.61744 525.06529 984.05859 524.60352 C 983.57411 524.02232 983.05299 523.49958 982.49609 523.03906 C 982.01297 522.45987 981.49259 521.93972 980.9375 521.48047 C 980.45556 520.90295 979.9383 520.38595 979.38477 519.92773 C 978.90421 519.35211 978.38765 518.83399 977.83594 518.37695 C 977.35677 517.80337 976.84089 517.28778 976.29102 516.83203 C 975.81299 516.26008 975.30031 515.74769 974.75195 515.29297 C 974.27504 514.72259 973.76369 514.21155 973.2168 513.75781 C 972.74182 513.19023 972.23185 512.67853 971.6875 512.22656 C 971.21391 511.66102 970.70462 511.15184 970.16211 510.70117 C 969.68967 510.13724 969.18358 509.6313 968.64258 509.18164 C 968.1716 508.61969 967.66801 508.11444 967.12891 507.66602 C 966.65882 507.10527 966.15512 506.60197 965.61719 506.1543 C 965.14871 505.59594 964.64714 505.09457 964.11133 504.64844 C 963.64431 504.09206 963.14524 503.59137 962.61133 503.14648 C 962.14601 502.5925 961.64692 502.09181 961.11523 501.64844 C 960.65133 501.0965 960.15289 500.5983 959.62305 500.15625 C 959.16026 499.60589 958.66509 499.11097 958.13672 498.66992 C 957.67505 498.12112 957.18122 497.62755 956.6543 497.1875 C 956.19485 496.64179 955.70177 496.14901 955.17773 495.71094 C 954.71913 495.16647 954.228 494.6736 953.70508 494.23633 C 953.2485 493.69463 952.75858 493.20503 952.23828 492.76953 C 951.78282 492.22938 951.29424 491.74115 950.77539 491.30664 C 950.32078 490.76774 949.83414 490.2794 949.31641 489.8457 C 948.8632 489.30882 948.37919 488.82496 947.86328 488.39258 C 947.41155 487.85767 946.93002 487.37448 946.41602 486.94336 C 945.96692 486.41193 945.48717 485.93282 944.97656 485.50391 C 944.52696 484.97165 944.04643 484.49197 943.53516 484.0625 L 943.5332 484.06055 L 943.53125 484.05859 C 943.08427 483.53035 942.60745 483.05375 942.09961 482.62695 L 942.09961 482.625 L 942.09766 482.625 C 941.65304 482.09978 941.17864 481.62605 940.67383 481.20117 C 940.67263 481.19975 940.67113 481.19869 940.66992 481.19727 C 940.66853 481.19609 940.66741 481.19453 940.66602 481.19336 C 940.22419 480.67213 939.75121 480.1996 939.25 479.77734 C 939.24819 479.77521 939.24595 479.77362 939.24414 479.77148 C 939.24205 479.76972 939.24038 479.76739 939.23828 479.76562 C 938.79936 479.24827 938.33148 478.78107 937.83398 478.36133 C 937.83127 478.35812 937.82889 478.35477 937.82617 478.35156 C 937.82302 478.34891 937.81956 478.3464 937.81641 478.34375 C 937.38027 477.83036 936.91382 477.36439 936.41992 476.94727 C 936.41659 476.94333 936.41349 476.93948 936.41016 476.93555 C 936.4063 476.9323 936.40229 476.92902 936.39844 476.92578 C 935.9606 476.41086 935.496 475.94337 935 475.52539 C 934.56073 475.00775 934.09166 474.54099 933.59375 474.12109 C 933.15587 473.60543 932.68948 473.13929 932.19336 472.7207 C 931.75694 472.20699 931.29308 471.74155 930.79883 471.32422 C 930.36381 470.81249 929.89871 470.34765 929.40625 469.93164 C 928.97238 469.4215 928.5105 468.95988 928.01953 468.54492 C 927.58793 468.03788 927.12675 467.57698 926.63867 467.16406 C 926.20821 466.65859 925.74834 466.19899 925.26172 465.78711 C 924.83243 465.28323 924.37575 464.82685 923.89062 464.41602 C 923.46277 463.91404 923.00673 463.45645 922.52344 463.04688 C 922.09699 462.5469 921.64164 462.09184 921.16016 461.68359 C 920.73488 461.18522 920.28273 460.73335 919.80273 460.32617 C 919.3786 459.82936 918.92775 459.3788 918.44922 458.97266 C 918.02677 458.47823 917.57795 458.02953 917.10156 457.625 C 916.68083 457.13281 916.23202 456.68431 915.75781 456.28125 C 915.33826 455.79067 914.89263 455.34534 914.41992 454.94336 C 914.0009 454.45361 913.55601 454.00883 913.08398 453.60742 C 912.66758 453.12117 912.22652 452.67837 911.75781 452.2793 C 911.34198 451.79382 910.89962 451.35364 910.43164 450.95508 C 910.01753 450.47194 909.57908 450.03175 909.11328 449.63477 C 908.7009 449.15395 908.26244 448.71769 907.79883 448.32227 C 907.38702 447.84222 906.95117 447.40467 906.48828 447.00977 C 906.079 446.53319 905.64329 446.09763 905.18359 445.70508 C 904.77498 445.2293 904.34168 444.79633 903.88281 444.4043 C 903.47589 443.93089 903.04461 443.49978 902.58789 443.10938 C 902.18268 442.63816 901.75144 442.2073 901.29688 441.81836 C 900.89225 441.34805 900.46359 440.91956 900.00977 440.53125 C 899.608 440.06468 899.1807 439.63774 898.73047 439.25195 C 898.32847 438.78511 897.90366 438.35862 897.45312 437.97266 C 897.05365 437.50925 896.629 437.08478 896.18164 436.70117 C 895.78332 436.23931 895.35997 435.81615 894.91406 435.43359 C 894.51696 434.97337 894.09673 434.5533 893.65234 434.17188 C 893.25669 433.71354 892.8371 433.29616 892.39453 432.91602 C 892.00054 432.45989 891.58306 432.04075 891.14258 431.66211 C 890.75065 431.20866 890.3344 430.79282 889.89648 430.41602 C 889.504 429.96195 889.08898 429.54713 888.65039 429.16992 C 888.26139 428.72047 887.85026 428.30958 887.41602 427.93555 C 887.02617 427.48493 886.61499 427.07211 886.17969 426.69727 C 885.79382 426.25193 885.38348 425.84385 884.95312 425.47266 C 884.56643 425.02628 884.15793 424.618 883.72656 424.24609 C 883.34297 423.80387 882.93728 423.39636 882.50977 423.02734 C 882.12769 422.58698 881.72251 422.18221 881.29688 421.81445 C 880.91489 421.3742 880.51147 420.9712 880.08594 420.60352 C 879.70503 420.16489 879.30308 419.76299 878.87891 419.39648 C 878.50032 418.96094 878.10098 418.56163 877.67969 418.19727 C 877.30259 417.76362 876.90579 417.365 876.48633 417.00195 C 876.11105 416.57051 875.71409 416.17599 875.29688 415.81445 C 874.92124 415.38267 874.52507 414.98675 874.10742 414.625 C 873.7356 414.19819 873.34458 413.80554 872.93164 413.44727 C 872.55956 413.02005 872.16717 412.6281 871.75391 412.26953 C 871.38291 411.84394 870.99199 411.4531 870.58008 411.0957 C 870.21248 410.67455 869.82375 410.28591 869.41602 409.93164 C 869.04904 409.5112 868.66088 409.12331 868.25391 408.76953 C 867.88822 408.35075 867.50305 407.96589 867.09766 407.61328 C 866.73396 407.19697 866.35022 406.81183 865.94727 406.46094 C 865.58301 406.0441 865.19854 405.66177 864.79492 405.31055 C 864.43494 404.89922 864.05463 404.51919 863.65625 404.17188 C 863.29492 403.75884 862.91567 403.37783 862.51562 403.0293 C 862.15765 402.62071 861.77874 402.24379 861.38281 401.89844 C 861.02604 401.49132 860.65031 401.11385 860.25586 400.76953 C 859.90011 400.36372 859.52601 399.98988 859.13281 399.64648 C 858.77824 399.24218 858.40544 398.86965 858.01367 398.52734 C 857.66132 398.1259 857.28945 397.75434 856.90039 397.41406 C 856.54983 397.01484 856.17985 396.64534 855.79297 396.30664 C 855.44129 395.90616 855.07182 395.53683 854.68359 395.19727 C 854.3368 394.80303 853.97213 394.43665 853.58984 394.10156 C 853.24112 393.70489 852.87486 393.33878 852.49023 393.00195 C 852.14545 392.61044 851.78218 392.24716 851.40234 391.91406 C 851.05818 391.52326 850.69549 391.16074 850.31641 390.82812 C 849.97355 390.43903 849.61382 390.07941 849.23633 389.74805 C 848.89495 389.36079 848.53587 389.00386 848.16016 388.67383 C 847.81994 388.2881 847.46414 387.93048 847.08984 387.60156 C 846.75251 387.21936 846.39817 386.86349 846.02734 386.53711 C 845.68957 386.15434 845.33425 385.8014 844.96289 385.47461 C 844.62618 385.09348 844.27435 384.73963 843.9043 384.41406 C 843.57086 384.03708 843.22158 383.68778 842.85547 383.36523 C 842.5236 382.98998 842.17477 382.64358 841.81055 382.32227 C 841.47745 381.94555 841.12938 381.5958 840.76367 381.27344 C 840.4348 380.90223 840.08912 380.55659 839.72852 380.23828 C 839.40027 379.86778 839.05517 379.52289 838.69531 379.20508 C 838.36966 378.83771 838.02864 378.49717 837.67188 378.18164 C 837.34441 377.81205 837.0015 377.4695 836.64258 377.15234 C 836.31898 376.78791 835.97926 376.44809 835.625 376.13477 C 835.30282 375.77197 834.96586 375.43518 834.61328 375.12305 C 834.29212 374.76152 833.95487 374.42448 833.60352 374.11328 C 833.28371 373.75348 832.94935 373.41928 832.59961 373.10938 C 832.2817 372.75198 831.94903 372.4175 831.60156 372.10938 C 831.28474 371.75333 830.95359 371.42236 830.60742 371.11523 C 830.29179 370.76069 829.96194 370.43102 829.61719 370.125 C 829.30332 369.7727 828.97546 369.44497 828.63281 369.14062 C 828.32013 368.78983 827.99357 368.46338 827.65234 368.16016 C 827.34271 367.81297 827.01925 367.49 826.68164 367.18945 C 826.36957 366.83935 826.04364 366.51365 825.70312 366.21094 C 825.39575 365.86689 825.07516 365.5462 824.74023 365.24805 C 824.43347 364.9047 824.11348 364.58475 823.7793 364.28711 C 823.47531 363.94702 823.15904 363.62921 822.82812 363.33398 C 822.52199 362.99139 822.20259 362.67208 821.86914 362.375 C 821.568 362.03877 821.2533 361.72586 820.92578 361.43359 C 820.62511 361.09776 820.31135 360.78223 819.98438 360.49023 C 819.68519 360.15629 819.37208 359.8433 819.04688 359.55273 C 818.75032 359.22194 818.44124 358.9132 818.11914 358.625 C 817.82048 358.29166 817.51014 357.97956 817.18555 357.68945 C 816.89199 357.36259 816.58421 357.05666 816.26562 356.77148 C 815.97204 356.44442 815.66627 356.13887 815.34766 355.85352 C 815.05562 355.52843 814.75037 355.2233 814.43359 354.93945 C 814.14296 354.61612 813.84052 354.31376 813.52539 354.03125 C 813.23754 353.71116 812.93882 353.41092 812.62695 353.13086 C 812.33821 352.80967 812.03753 352.50941 811.72461 352.22852 C 811.43693 351.90894 811.13782 351.6097 810.82617 351.33008 C 810.54307 351.01612 810.2477 350.72063 809.94141 350.44531 C 809.65801 350.13081 809.36328 349.83631 809.05664 349.56055 C 808.7748 349.24799 808.48061 348.95395 808.17578 348.67969 C 807.89603 348.36973 807.60511 348.07694 807.30273 347.80469 C 807.02383 347.49574 806.73303 347.20703 806.43164 346.93555 C 806.15459 346.62885 805.86563 346.34005 805.56641 346.07031 C 805.29056 345.76508 805.0029 345.47759 804.70508 345.20898 C 804.43098 344.90589 804.14734 344.62047 803.85156 344.35352 C 803.58 344.05337 803.29674 343.77054 803.00391 343.50586 C 802.73138 343.20454 802.44826 342.92185 802.1543 342.65625 C 801.88285 342.35652 801.60129 342.07487 801.30859 341.81055 C 801.04139 341.51593 800.76433 341.23887 800.47656 340.97852 C 800.20941 340.68383 799.93224 340.4069 799.64453 340.14648 C 799.37892 339.8537 799.10233 339.57729 798.81641 339.31836 C 798.55224 339.02736 798.27839 338.75363 797.99414 338.49609 C 797.73341 338.20907 797.46193 337.93803 797.18164 337.68359 C 796.91718 337.39223 796.64396 337.11718 796.35938 336.85938 C 796.10118 336.57578 795.83397 336.30834 795.55664 336.05664 C 795.29889 335.77335 795.03074 335.50539 794.75391 335.25391 C 794.49736 334.97207 794.23052 334.70542 793.95508 334.45508 C 793.70126 334.17642 793.43832 333.91386 793.16602 333.66602 C 792.90942 333.38415 792.64464 333.11755 792.36914 332.86719 C 792.11824 332.59236 791.85682 332.33267 791.58789 332.08789 C 791.33765 331.81365 791.07874 331.55488 790.81055 331.31055 C 790.56285 331.03916 790.30629 330.78115 790.04102 330.53906 C 789.78986 330.26373 789.529 330.00496 789.25977 329.75977 C 789.01489 329.49213 788.76202 329.23906 788.5 329 C 788.25521 328.73228 788.00217 328.47938 787.74023 328.24023 C 787.49666 327.97396 787.24491 327.72236 786.98438 327.48438 C 786.7423 327.21992 786.49318 326.96895 786.23438 326.73242 C 785.99446 326.47051 785.74659 326.22279 785.49023 325.98828 C 785.25126 325.72745 785.00333 325.47974 784.74805 325.24609 C 784.51086 324.98745 784.26496 324.74165 784.01172 324.50977 C 783.77575 324.25256 783.53115 324.00807 783.2793 323.77734 C 783.04516 323.52231 782.80446 323.27976 782.55469 323.05078 C 782.32209 322.79753 782.08006 322.55762 781.83203 322.33008 C 781.60033 322.07792 781.36224 321.83799 781.11523 321.61133 C 780.88536 321.36133 780.64727 321.12531 780.40234 320.90039 C 780.174 320.65217 779.9385 320.41489 779.69531 320.19141 C 779.4704 319.94708 779.23736 319.71448 778.99805 319.49414 C 778.771 319.24729 778.53665 319.0134 778.29492 318.79102 C 778.06893 318.54576 777.83622 318.31285 777.5957 318.0918 C 777.37684 317.85473 777.15239 317.62846 776.91992 317.41406 C 776.69717 317.17227 776.46734 316.94288 776.23047 316.72461 C 776.00877 316.4844 775.78057 316.25601 775.54492 316.03906 C 775.32903 315.80564 775.10606 315.58249 774.87695 315.37109 C 774.66054 315.13689 774.43674 314.91518 774.20703 314.70312 C 773.99183 314.47035 773.7713 314.24799 773.54297 314.03711 C 773.3293 313.80615 773.10942 313.58635 772.88281 313.37695 C 772.67128 313.14845 772.45273 312.93003 772.22852 312.72266 C 772.02012 312.49764 771.80468 312.28265 771.58398 312.07812 C 771.37124 311.84823 771.15331 311.62844 770.92773 311.41992 C 770.72419 311.20069 770.51409 310.99073 770.29883 310.79102 C 770.08914 310.56469 769.87253 310.35011 769.65039 310.14453 C 769.44797 309.92675 769.23938 309.71802 769.02539 309.51953 C 768.82243 309.30098 768.61304 309.09173 768.39844 308.89258 C 768.19704 308.67585 767.9902 308.46911 767.77734 308.27148 C 767.5775 308.05654 767.37322 307.85045 767.16211 307.6543 C 766.96347 307.44073 766.7586 307.23602 766.54883 307.04102 C 766.35456 306.83234 766.15413 306.63234 765.94922 306.44141 C 765.74938 306.22648 765.5451 306.02035 765.33398 305.82422 C 765.14434 305.62101 764.94977 305.42657 764.75 305.24023 C 764.55324 305.02886 764.35026 304.82794 764.14258 304.63477 C 763.95599 304.43506 763.76474 304.24393 763.56836 304.06055 C 763.37468 303.85271 763.17691 303.65311 762.97266 303.46289 C 762.78687 303.26427 762.59588 303.07308 762.40039 302.89062 C 762.21662 302.69398 762.02726 302.50504 761.83398 302.32422 C 761.64687 302.12375 761.45479 301.93209 761.25781 301.74805 C 761.07238 301.54983 760.88259 301.35985 760.6875 301.17773 C 760.50766 300.98587 760.32368 300.80174 760.13477 300.625 C 759.95437 300.43237 759.76961 300.24772 759.58008 300.07031 C 759.40115 299.87937 759.21721 299.6955 759.0293 299.51953 C 758.85197 299.33044 758.67052 299.14901 758.48438 298.97461 C 758.31119 298.79001 758.13473 298.61199 757.95312 298.44141 C 757.77654 298.25294 757.5955 298.07232 757.41016 297.89844 C 757.23527 297.71221 757.0565 297.53328 756.87305 297.36133 C 756.70398 297.18168 756.53058 297.00812 756.35352 296.8418 C 756.18646 296.66412 756.01471 296.49279 755.83984 296.32812 C 755.66688 296.14394 755.48994 295.96708 755.30859 295.79688 C 755.14426 295.62257 754.97657 295.45471 754.80469 295.29297 C 754.64207 295.1203 754.47665 294.95332 754.30664 294.79297 C 754.14061 294.61645 753.97062 294.44686 753.79688 294.2832 C 753.63221 294.10855 753.46324 293.94133 753.29102 293.7793 C 753.13281 293.61187 752.97182 293.44876 752.80664 293.29297 C 752.64768 293.12455 752.48437 292.9633 752.31836 292.80664 C 752.16064 292.63962 752.0006 292.47772 751.83594 292.32227 C 751.67977 292.15701 751.52039 291.99767 751.35742 291.84375 C 751.20313 291.68058 751.04569 291.52321 750.88477 291.37109 C 750.7345 291.21225 750.58038 291.05851 750.42383 290.91016 C 750.26735 290.74455 750.10861 290.58392 749.94531 290.42969 C 749.80041 290.27696 749.65269 290.12933 749.50195 289.98633 C 749.34859 289.8242 749.19116 289.66879 749.03125 289.51758 C 748.88945 289.36829 748.74504 289.22397 748.59766 289.08398 C 748.44741 288.92533 748.2952 288.77123 748.13867 288.62305 C 747.9973 288.47438 747.852 288.33083 747.70508 288.19141 C 747.56573 288.0447 747.42403 287.90139 747.2793 287.76367 C 747.13603 287.61262 746.99077 287.46576 746.8418 287.32422 C 746.70024 287.17535 746.55532 287.03218 746.4082 286.89258 C 746.27552 286.75334 746.14147 286.61744 746.00391 286.48633 C 745.86243 286.33741 745.71735 286.19435 745.57031 286.05469 C 745.44105 285.91923 745.30966 285.78791 745.17578 285.66016 C 745.03743 285.51469 744.89756 285.37294 744.75391 285.23633 C 744.62489 285.10129 744.49298 284.97112 744.35938 284.84375 C 744.23242 284.71067 744.10407 284.58073 743.97266 284.45508 C 743.83903 284.3148 743.70303 284.17891 743.56445 284.04688 C 743.44002 283.91681 743.31231 283.7909 743.18359 283.66797 C 743.0581 283.53664 742.93063 283.40923 742.80078 283.28516 C 742.67704 283.15574 742.5518 283.02862 742.42383 282.90625 C 742.30458 282.78161 742.18372 282.65911 742.06055 282.54102 C 741.93446 282.40904 741.80627 282.2809 741.67578 282.15625 C 741.55923 282.03479 741.44061 281.916 741.32031 281.80078 C 741.20272 281.67807 741.08234 281.55971 740.96094 281.44336 C 740.84506 281.32252 740.727 281.20452 740.60742 281.08984 C 740.49572 280.97341 740.38272 280.85875 740.26758 280.74805 C 740.15196 280.62736 740.03533 280.50908 739.91602 280.39453 C 739.8015 280.27529 739.68453 280.16009 739.56641 280.04688 C 739.45929 279.93565 739.3505 279.82667 739.24023 279.7207 C 739.13178 279.60792 739.02185 279.49801 738.91016 279.39062 C 738.80375 279.28004 738.69546 279.1718 738.58594 279.06641 C 738.48079 278.95718 738.37382 278.85025 738.26562 278.74609 C 738.16174 278.63823 738.05606 278.53261 737.94922 278.42969 C 737.84742 278.32407 737.74527 278.22002 737.64062 278.11914 C 737.54316 278.01806 737.44382 277.919 737.34375 277.82227 C 737.24171 277.71626 737.1381 277.61295 737.0332 277.51172 C 736.93261 277.4075 736.83188 277.30467 736.72852 277.20508 C 736.63567 277.10915 736.54052 277.01582 736.44531 276.92383 C 736.35094 276.82617 736.25502 276.73031 736.1582 276.63672 C 736.06497 276.54028 735.97062 276.44598 735.875 276.35352 C 735.78378 276.25924 735.69116 276.16665 735.59766 276.07617 C 735.50823 275.9838 735.41779 275.89342 735.32617 275.80469 C 735.23813 275.71379 735.14875 275.62447 735.05859 275.53711 C 734.97182 275.44756 734.88375 275.35955 734.79492 275.27344 C 734.70993 275.18579 734.62408 275.09998 734.53711 275.01562 C 734.45338 274.92933 734.36884 274.84482 734.2832 274.76172 C 734.20109 274.67713 734.11912 274.59324 734.03516 274.51172 C 733.95505 274.42926 733.87287 274.34907 733.79102 274.26953 C 733.71532 274.19165 733.63976 274.11434 733.5625 274.03906 C 733.47912 273.95313 733.39583 273.86793 733.31055 273.78516 C 733.24089 273.71372 733.17059 273.64346 733.09961 273.57422 C 733.0194 273.49165 732.93743 273.41167 732.85547 273.33203 C 732.78572 273.26058 732.7156 273.19034 732.64453 273.12109 C 732.57653 273.05131 732.50872 272.98175 732.43945 272.91406 C 732.36403 272.83656 732.28791 272.76047 732.21094 272.68555 C 732.146 272.61913 732.07976 272.55474 732.01367 272.49023 C 731.94718 272.42212 731.8802 272.35517 731.8125 272.28906 C 731.74762 272.22264 731.68321 272.15632 731.61719 272.0918 C 731.55725 272.03048 731.49646 271.96985 731.43555 271.91016 C 731.36778 271.84071 731.29949 271.77245 731.23047 271.70508 C 731.17688 271.65042 731.12273 271.59633 731.06836 271.54297 C 731.00314 271.4762 730.93747 271.41055 730.87109 271.3457 C 730.81743 271.29105 730.76342 271.23695 730.70898 271.18359 C 730.6538 271.12729 730.59898 271.07056 730.54297 271.01562 C 730.48932 270.96092 730.43529 270.90692 730.38086 270.85352 C 730.32849 270.80015 730.27576 270.74745 730.22266 270.69531 C 730.17195 270.64366 730.11976 270.59346 730.06836 270.54297 C 730.02284 270.49663 729.97772 270.4497 729.93164 270.4043 C 729.87733 270.3489 729.82269 270.29429 729.76758 270.24023 C 729.72845 270.20054 729.68993 270.1601 729.65039 270.12109 C 729.59931 270.06906 729.54788 270.01765 729.49609 269.9668 C 729.45626 269.92643 729.41526 269.88731 729.375 269.84766 C 729.33425 269.80629 729.29315 269.76522 729.25195 269.72461 C 729.21243 269.68451 729.17276 269.64486 729.13281 269.60547 C 729.09458 269.5667 729.05621 269.52835 729.01758 269.49023 C 728.98097 269.45313 728.94517 269.41541 728.9082 269.37891 C 728.87326 269.34352 728.838 269.30828 728.80273 269.27344 C 728.77328 269.24363 728.74453 269.21301 728.71484 269.18359 C 728.676 269.14419 728.63691 269.10513 728.59766 269.06641 C 728.57461 269.04317 728.55053 269.02105 728.52734 268.99805 C 728.4953 268.96558 728.46396 268.9324 728.43164 268.90039 C 728.40078 268.86921 728.36901 268.83934 728.33789 268.80859 C 728.31578 268.78634 728.29372 268.76423 728.27148 268.74219 C 728.2478 268.71829 728.22501 268.69357 728.20117 268.66992 C 728.17911 268.64768 728.15696 268.62554 728.13477 268.60352 C 728.11399 268.58259 728.09315 268.56175 728.07227 268.54102 C 728.05347 268.52209 728.03453 268.50315 728.01562 268.48438 C 727.99812 268.46675 727.98048 268.44912 727.96289 268.43164 C 727.94666 268.41531 727.93036 268.39903 727.91406 268.38281 C 727.89978 268.36846 727.88543 268.35411 727.87109 268.33984 C 727.85845 268.32714 727.84667 268.31341 727.83398 268.30078 C 727.82295 268.2897 727.81185 268.2786 727.80078 268.26758 C 727.79565 268.26243 727.7903 268.25709 727.78516 268.25195 L 727.7832 268.25 C 727.77517 268.24192 727.76782 268.23266 727.75977 268.22461 C 727.75625 268.22107 727.75157 268.21837 727.74805 268.21484 C 727.74444 268.21125 727.74189 268.20671 727.73828 268.20312 C 727.73268 268.19752 727.72631 268.19309 727.7207 268.1875 L 727.71484 268.18164 L 727.70898 268.17578 L 727.70508 268.17188 L 727.70117 268.16797 C 727.68111 268.1479 727.65884 268.13121 727.63867 268.11133 C 727.421 267.89715 727.19893 267.68944 726.96875 267.49609 C 726.73078 267.29581 726.48572 267.10963 726.23438 266.93164 C 726.21699 266.91933 726.20104 266.90478 726.18359 266.89258 C 726.18093 266.89072 726.17845 266.88858 726.17578 266.88672 C 725.90621 266.69853 725.62858 266.52214 725.34375 266.35938 C 723.39062 265.0573 720.94922 264.40625 718.01953 264.40625 L 261.47656 264.40625 z "
       id="path7311" />
    <path
       d="m 755.12695,686.76758 q 0,14.64844 -1.95312,22.46094 -1.95313,7.8125 -5.3711,11.23046 -2.92968,2.92969 -9.27734,5.85938 -6.34766,2.44141 -15.13672,4.39453 -8.78906,1.95313 -19.04297,3.41797 -10.2539,1.46484 -21.48437,1.46484 -22.94922,0 -42.96875,-4.88281 -19.53125,-4.39453 -34.66797,-19.04297 -15.13672,-14.64844 -25.39063,-41.5039 -10.2539,-27.34375 -15.625,-71.77735 -4.88281,-44.92187 -4.39453,-109.86328 0.97657,-64.94141 8.30078,-155.76172 l -156.25,0 q 1.46485,79.10156 -3.41796,141.11328 -4.88282,62.01172 -12.69532,108.39844 -7.32422,46.38672 -17.08984,78.125 -9.76563,31.25 -14.16016,41.01563 -3.90625,9.76562 -6.83593,14.64843 -2.44141,4.39453 -4.88282,7.32422 -1.95312,2.44141 -5.37109,4.39453 -3.41797,1.46485 -7.8125,1.95313 -4.39453,0.97656 -11.23047,1.46484 -6.34766,0.48828 -15.13672,0.48828 -13.67187,0 -21.97265,-0.97656 -7.8125,-0.48828 -12.20704,-1.95312 -3.90625,-1.95313 -5.37109,-4.39454 -1.46484,-2.4414 -1.46484,-4.88281 0,-4.39453 3.41797,-14.16015 3.90625,-9.76563 9.76562,-22.94922 5.85938,-13.67188 15.625,-44.92188 9.76563,-31.25 17.08984,-73.73047 7.8125,-42.48047 11.71875,-98.63281 4.39454,-56.64062 4.39454,-132.32422 l -72.75391,0 q -7.8125,0 -12.20703,-8.30078 -4.39453,-8.78906 -4.39453,-25.87891 0,-8.78906 0.97656,-15.13671 0.97656,-6.83594 2.92969,-10.74219 1.95312,-4.39453 4.88281,-6.34766 3.41797,-1.95312 7.8125,-1.95312 l 456.54297,0 q 4.39453,0 7.32422,1.95312 3.41797,1.95313 5.37109,6.34766 2.44141,3.90625 3.41797,10.74219 0.97656,6.34765 0.97656,15.13671 0,17.08985 -4.88281,25.87891 -4.39453,8.30078 -12.20703,8.30078 l -73.73047,0 q -3.90625,78.61328 -3.90625,133.78906 0,55.17579 2.92969,92.28516 2.92968,37.10938 8.30078,58.59375 5.37109,21.48438 12.20703,32.71484 7.32422,10.74219 15.13672,13.67188 8.30078,2.92969 16.60156,2.92969 13.67188,0 29.78516,-3.90625 16.60156,-4.39453 19.53125,-4.39453 2.92968,0 4.39453,1.46484 1.95312,0.97656 2.92969,4.39453 1.46484,2.92969 1.95312,8.30078 0.97656,5.3711 0.97656,14.16016 z"
       style="font-style:normal;font-variant:normal;font-weight:normal;font-stretch:normal;font-size:1000px;line-height:125%;font-family:Calibri;-inkscape-font-specification:Calibri;letter-spacing:0px;word-spacing:0px;fill:#ffc200;fill-opacity:1;stroke:none;stroke-width:0.1;stroke-linecap:butt;stroke-linejoin:miter;stroke-opacity:1;stroke-miterlimit:4;stroke-dasharray:none"
       id="path4275"
       inkscape:connector-curvature="0" />
  </g>
</svg>
